<svg width="33" height="33" viewBox="0 0 33 33" fill="none" xmlns="http://www.w3.org/2000/svg">
<path fill-rule="evenodd" clip-rule="evenodd" d="M28.8589 19.25C28.5001 26.9044 22.1806 33 14.4375 33C6.46389 33 0 26.5361 0 18.5625C0 10.8194 6.09563 4.49992 13.75 4.14108V2.75C13.75 1.99061 14.3656 1.375 15.125 1.375C24.2377 1.375 31.625 8.7623 31.625 17.875C31.625 18.6344 31.0094 19.25 30.25 19.25H28.8589ZM13.75 6.89489C7.61518 7.25075 2.75 12.3385 2.75 18.5625C2.75 25.0173 7.98267 30.25 14.4375 30.25C20.6615 30.25 25.7493 25.3848 26.1051 19.25H15.125C14.3656 19.25 13.75 18.6344 13.75 17.875V6.89489ZM16.5 4.19289V16.5H28.8071C28.1621 10.0039 22.9961 4.83786 16.5 4.19289Z" fill="white"/>
</svg>
