<svg width="16" height="18" viewBox="0 0 16 18" fill="none" xmlns="http://www.w3.org/2000/svg">
<path d="M13.7325 6.26576L13.8153 6.26689C14.1229 6.29232 14.3587 6.54771 14.375 6.85513L14.3671 7.02653L14.105 10.2359L13.8301 13.3679C13.7719 13.9931 13.7198 14.5205 13.6749 14.9356C13.5187 16.3824 12.5796 17.277 11.1638 17.3035C8.95781 17.3443 6.83731 17.3438 4.7781 17.2993C3.40331 17.2705 2.47805 16.3661 2.32462 14.9415L2.21858 13.8919L2.03328 11.8559L1.84347 9.6218L1.62643 6.93998C1.59946 6.5959 1.84959 6.29454 2.18512 6.26688C2.49269 6.24152 2.76525 6.45495 2.82932 6.75573L2.85426 7.00152L3.05805 9.51568L3.28057 12.1216C3.38038 13.2498 3.46695 14.1627 3.53622 14.8041C3.62365 15.6159 4.05115 16.0337 4.80343 16.0495C6.84654 16.0937 8.95123 16.0941 11.1417 16.0537C11.9398 16.0387 12.374 15.625 12.4633 14.7979L12.5689 13.7539C12.5998 13.4322 12.6328 13.077 12.6678 12.6912L12.8905 10.1282L13.1588 6.83966C13.1836 6.52426 13.4327 6.2825 13.7325 6.26576ZM1.10949 4.8244C0.772879 4.8244 0.5 4.54457 0.5 4.19938C0.5 3.88295 0.729294 3.62145 1.02679 3.58006L1.10949 3.57435H3.76476C4.0803 3.57435 4.35654 3.36615 4.45535 3.06616L4.47953 2.97352L4.68587 1.92119C4.86759 1.22422 5.45767 0.727992 6.14916 0.672024L6.27993 0.666748H9.7199C10.4229 0.666748 11.0436 1.12198 11.2826 1.8254L11.3228 1.96015L11.5203 2.97327C11.5822 3.29068 11.8354 3.52775 12.1417 3.56822L12.2351 3.57435H14.8905C15.2271 3.57435 15.5 3.85419 15.5 4.19938C15.5 4.5158 15.2707 4.77731 14.9732 4.8187L14.8905 4.8244H1.10949ZM9.7199 1.91679H6.27993C6.10892 1.91679 5.95691 2.01944 5.89377 2.14844L5.87235 2.20511L5.67483 3.21873C5.65067 3.34245 5.61566 3.46158 5.57093 3.57518L10.429 3.57534C10.4011 3.50447 10.377 3.43144 10.3569 3.35648L10.325 3.21848L10.1364 2.24408C10.0923 2.07501 9.95612 1.95123 9.79185 1.92293L9.7199 1.91679Z" fill="white"/>
</svg>
