<svg width="33" height="33" viewBox="0 0 33 33" fill="none" xmlns="http://www.w3.org/2000/svg">
<path fill-rule="evenodd" clip-rule="evenodd" d="M29.1058 13.75H29.7933C31.3121 13.75 32.5433 14.9812 32.5433 16.5C32.5433 16.8631 32.4714 17.2225 32.3318 17.5577L27.7485 28.5577C27.3215 29.5825 26.3202 30.25 25.21 30.25H6.00691C3.89591 30.25 2.12557 28.6562 1.90458 26.5568L0.0229995 8.68182C-0.215491 6.41617 1.42785 4.38616 3.69351 4.14767C3.83696 4.13257 3.9811 4.125 4.12533 4.125H12.3023C12.8941 4.125 13.4196 4.50372 13.6067 5.06519L14.6683 8.25H26.6782C28.197 8.25 29.4282 9.48122 29.4282 11C29.4282 11.114 29.4211 11.2279 29.4069 11.3411L29.1058 13.75ZM26.3344 13.75L26.6782 11H12.6862L11.3112 6.875H4.12533C4.07725 6.875 4.02921 6.87752 3.98139 6.88256C3.22617 6.96205 2.67839 7.63872 2.75789 8.39394L4.50084 24.952L8.46321 15.4423C8.8902 14.4175 9.89149 13.75 11.0017 13.75H26.3344ZM11.0017 16.5L6.41833 27.5H25.21L29.7933 16.5H11.0017Z" fill="white"/>
</svg>
