<svg width="24" height="24" viewBox="0 0 24 24" fill="none" xmlns="http://www.w3.org/2000/svg">
<path d="M11.331 2.02148C13.7103 2.02148 15.6522 3.89542 15.7612 6.24772L15.766 6.45648V7.38948C15.766 7.8037 15.4302 8.13948 15.016 8.13948C14.6363 8.13948 14.3225 7.85733 14.2729 7.49125L14.266 7.38948V6.45648C14.266 4.89358 13.044 3.61575 11.5035 3.52647L11.331 3.52148H6.45603C4.89398 3.52148 3.61629 4.74362 3.52702 6.28406L3.52203 6.45648V17.5865C3.52203 19.1493 4.74394 20.4272 6.28369 20.5165L6.45603 20.5215H11.341C12.8984 20.5215 14.1721 19.3039 14.2611 17.7693L14.266 17.5975V16.6545C14.266 16.2403 14.6018 15.9045 15.016 15.9045C15.3957 15.9045 15.7095 16.1866 15.7592 16.5527L15.766 16.6545V17.5975C15.766 19.9687 13.8992 21.9046 11.5554 22.0164L11.341 22.0215H6.45603C4.07759 22.0215 2.13587 20.1474 2.02686 17.7952L2.02203 17.5865V6.45648C2.02203 4.07743 3.89579 2.13535 6.24734 2.02631L6.45603 2.02148H11.331ZM19.3261 8.50234L19.4104 8.57478L22.3384 11.4898C22.3647 11.5159 22.3879 11.5426 22.4091 11.5707L22.3384 11.4898C22.3689 11.5202 22.3963 11.5526 22.4205 11.5865C22.4376 11.6103 22.4534 11.6354 22.4677 11.6614C22.4703 11.6665 22.4729 11.6715 22.4755 11.6764C22.4881 11.7004 22.4994 11.7253 22.5093 11.7508C22.5133 11.762 22.5174 11.7733 22.5211 11.7847C22.5284 11.8058 22.5346 11.8274 22.5397 11.8494C22.5421 11.8612 22.5446 11.8729 22.5467 11.8846C22.5509 11.905 22.5539 11.9261 22.5559 11.9474C22.5571 11.9623 22.5581 11.977 22.5587 11.9917C22.5593 12.0016 22.5595 12.0115 22.5595 12.0214L22.5587 12.0497C22.5581 12.0651 22.5571 12.0805 22.5555 12.0958L22.5595 12.0214C22.5595 12.0682 22.5552 12.1141 22.547 12.1585C22.5446 12.1696 22.5421 12.1814 22.5394 12.193C22.5344 12.2162 22.528 12.2387 22.5206 12.2607C22.5168 12.2709 22.513 12.2813 22.5091 12.2915C22.4998 12.3164 22.489 12.3405 22.4769 12.3639C22.4739 12.3692 22.4708 12.3751 22.4676 12.381C22.4332 12.4443 22.39 12.5015 22.3399 12.5517L22.3385 12.5527L19.4105 15.4687C19.117 15.761 18.6421 15.76 18.3498 15.4665C18.0841 15.1997 18.0607 14.783 18.2792 14.4898L18.352 14.4059L19.991 12.7705L9.76853 12.7714C9.35432 12.7714 9.01853 12.4356 9.01853 12.0214C9.01853 11.6417 9.30069 11.3279 9.66676 11.2782L9.76853 11.2714L19.993 11.2705L18.3521 9.63779C18.0852 9.37212 18.0601 8.95551 18.2773 8.66142L18.3497 8.57714C18.6154 8.31028 19.032 8.28514 19.3261 8.50234Z" fill="white"/>
</svg>
