<svg width="40" height="40" viewBox="0 0 40 40" fill="none" xmlns="http://www.w3.org/2000/svg">
<path d="M20 15.6511V2.53905H15V0H5V2.53905H0V40H7.5V32.5H12.5V40H17.3438H20H40V15.6511H20ZM15 15.6298H11.5625V19.3749H8.41794V15.6298H5V12.4805H8.41794V8.74508H11.5625V12.4805H15V15.6298ZM23.1251 32.5H20V29.3749H23.1251V32.5ZM23.1251 26.25H20V23.1249H23.1251V26.25ZM29.3751 32.5H26.25V29.3749H29.3751V32.5ZM29.3751 26.25H26.25V23.1249H29.3751V26.25ZM35.6251 32.5H32.5V29.3749H35.6251V32.5ZM35.6511 26.25H32.5V23.0989H35.6511V26.25Z" fill="white"/>
</svg>
