<svg width="33" height="33" viewBox="0 0 33 33" fill="none" xmlns="http://www.w3.org/2000/svg">
<path fill-rule="evenodd" clip-rule="evenodd" d="M16.5 22C13.4624 22 11 19.5376 11 16.5C11 13.4624 13.4624 11 16.5 11C19.5376 11 22 13.4624 22 16.5C22 19.5376 19.5376 22 16.5 22ZM16.5 19.25C18.0188 19.25 19.25 18.0188 19.25 16.5C19.25 14.9812 18.0188 13.75 16.5 13.75C14.9812 13.75 13.75 14.9812 13.75 16.5C13.75 18.0188 14.9812 19.25 16.5 19.25ZM27.9108 11.9834C28.0743 12.2243 28.3475 12.3738 28.6413 12.375H28.875C31.1532 12.375 33 14.2218 33 16.5C33 18.7782 31.1532 20.625 28.875 20.625H28.7567C28.4005 20.6264 28.0791 20.8392 27.9388 21.1667L27.9329 21.1802C27.7854 21.5144 27.8562 21.9048 28.101 22.1552L28.183 22.2372C28.9576 23.0109 29.3928 24.0608 29.3928 25.1556C29.3928 26.2504 28.9576 27.3003 28.1841 28.073C27.4103 28.8476 26.3604 29.2828 25.2656 29.2828C24.1708 29.2828 23.1209 28.8476 22.3477 28.0735L22.276 28.0017C22.0148 27.7462 21.6244 27.6754 21.2767 27.8288C20.9492 27.9691 20.7364 28.2905 20.735 28.6413V28.875C20.735 31.1532 18.8882 33 16.61 33C14.3318 33 12.485 31.1532 12.485 28.875L12.4854 28.7834C12.4768 28.4165 12.2448 28.0922 11.8198 27.9329C11.4856 27.7854 11.0952 27.8562 10.8448 28.101L10.7628 28.183C9.98909 28.9576 8.93919 29.3928 7.84437 29.3928C6.74956 29.3928 5.69966 28.9576 4.92702 28.1841C4.15244 27.4103 3.71721 26.3604 3.71721 25.2656C3.71721 24.1708 4.15244 23.1209 4.92648 22.3477L4.99831 22.276C5.2538 22.0148 5.32458 21.6244 5.17118 21.2767C5.03085 20.9492 4.70949 20.7364 4.35875 20.735H4.125C1.84683 20.735 0 18.8882 0 16.61C0 14.3318 1.84683 12.485 4.125 12.485L4.2166 12.4854C4.58348 12.4768 4.90784 12.2448 5.06706 11.8198C5.21458 11.4856 5.1438 11.0952 4.89898 10.8448L4.81702 10.7628C4.04244 9.98909 3.60721 8.93919 3.60721 7.84437C3.60721 6.74956 4.04244 5.69966 4.81594 4.92702C5.58966 4.15244 6.63956 3.71721 7.73438 3.71721C8.82919 3.71721 9.87909 4.15244 10.6523 4.92648L10.724 4.99831C10.9852 5.2538 11.3756 5.32458 11.7098 5.17706C11.7979 5.13818 11.8896 5.10877 11.9834 5.08915C12.2243 4.92571 12.3738 4.65254 12.375 4.35875V4.125C12.375 1.84683 14.2218 0 16.5 0C18.7782 0 20.625 1.84683 20.625 4.125V4.24327C20.6264 4.59949 20.8392 4.92085 21.1802 5.06706C21.5144 5.21458 21.9048 5.1438 22.1552 4.89898L22.2372 4.81702C23.0109 4.04244 24.0608 3.60721 25.1556 3.60721C26.2504 3.60721 27.3003 4.04244 28.073 4.81594C28.8476 5.58966 29.2828 6.63956 29.2828 7.73438C29.2828 8.82919 28.8476 9.87909 28.0735 10.6523L28.0017 10.724C27.7462 10.9852 27.6754 11.3756 27.8229 11.7098C27.8618 11.7979 27.8912 11.8896 27.9108 11.9834ZM28.7512 17.875H28.875C29.6344 17.875 30.25 17.2594 30.25 16.5C30.25 15.7406 29.6344 15.125 28.875 15.125H28.6358C27.1835 15.1192 25.8733 14.2515 25.3012 12.9167C25.2514 12.8005 25.218 12.6782 25.2016 12.5535C24.7461 11.254 25.0622 9.79637 26.0465 8.79023L26.1295 8.70719C26.3877 8.44928 26.5328 8.09931 26.5328 7.73438C26.5328 7.36944 26.3877 7.01947 26.1284 6.76048C25.8705 6.50229 25.5206 6.35721 25.1556 6.35721C24.7907 6.35721 24.4407 6.50229 24.1823 6.76102L24.089 6.85419C23.0242 7.89578 21.4326 8.18437 20.0833 7.58882C18.7485 7.01671 17.8808 5.70653 17.875 4.24875V4.125C17.875 3.36561 17.2594 2.75 16.5 2.75C15.7406 2.75 15.125 3.36561 15.125 4.125V4.36423C15.1192 5.81653 14.2515 7.12671 12.9167 7.69882C12.8005 7.74861 12.6782 7.78204 12.5535 7.79837C11.254 8.2539 9.79637 7.93782 8.79023 6.95352L8.70719 6.87048C8.44928 6.61229 8.09931 6.46721 7.73438 6.46721C7.36944 6.46721 7.01947 6.61229 6.76048 6.87156C6.50229 7.12947 6.35721 7.47944 6.35721 7.84437C6.35721 8.20931 6.50229 8.55928 6.76102 8.81773L6.85419 8.91101C7.89578 9.97584 8.18437 11.5674 7.61549 12.8496C7.09903 14.2538 5.77667 15.1996 4.24875 15.235H4.125C3.36561 15.235 2.75 15.8506 2.75 16.61C2.75 17.3694 3.36561 17.985 4.125 17.985L4.36423 17.985C5.81653 17.9908 7.12671 18.8585 7.69294 20.1798C8.29437 21.5426 8.00578 23.1342 6.95352 24.2098L6.87048 24.2928C6.61229 24.5507 6.46721 24.9007 6.46721 25.2656C6.46721 25.6306 6.61229 25.9805 6.87156 26.2395C7.12947 26.4977 7.47944 26.6428 7.84437 26.6428C8.20931 26.6428 8.55928 26.4977 8.81773 26.239L8.91101 26.1458C9.97584 25.1042 11.5674 24.8156 12.8496 25.3845C14.2538 25.901 15.1996 27.2233 15.235 28.7512V28.875C15.235 29.6344 15.8506 30.25 16.61 30.25C17.3694 30.25 17.985 29.6344 17.985 28.875L17.985 28.6358C17.9908 27.1835 18.8585 25.8733 20.1798 25.3071C21.5426 24.7056 23.1342 24.9942 24.2098 26.0465L24.2928 26.1295C24.5507 26.3877 24.9007 26.5328 25.2656 26.5328C25.6306 26.5328 25.9805 26.3877 26.2395 26.1284C26.4977 25.8705 26.6428 25.5206 26.6428 25.1556C26.6428 24.7907 26.4977 24.4407 26.239 24.1823L26.1458 24.089C25.1059 23.0259 24.8166 21.4378 25.4141 20.0766C25.9877 18.7455 27.2959 17.8808 28.7512 17.875Z" fill="white"/>
</svg>
