<svg width="33" height="33" viewBox="0 0 33 33" fill="none" xmlns="http://www.w3.org/2000/svg">
<path fill-rule="evenodd" clip-rule="evenodd" d="M8.10156 4.125C8.86095 4.125 9.47656 4.74061 9.47656 5.5C9.47656 6.25939 8.86095 6.875 8.10156 6.875H5.21063C4.47932 6.875 3.87597 7.44744 3.83753 8.17773L2.752 28.8028C2.71209 29.5611 3.29449 30.2082 4.05283 30.2481C4.08895 30.2497 4.08895 30.2497 4.1251 30.25H11.5391C12.2985 30.25 12.9141 30.8656 12.9141 31.625C12.9141 32.3844 12.2985 33 11.5391 33H4.1251C4.01665 32.9991 4.01665 32.9991 3.9083 32.9943C1.63327 32.8746 -0.113934 30.9333 0.00580458 28.6582L1.09133 8.0332C1.20664 5.84231 3.01671 4.125 5.21063 4.125H8.10156ZM31.8119 11.1481C31.8518 11.9064 31.2694 12.5535 30.5111 12.5934C29.7527 12.6333 29.1056 12.0509 29.0657 11.2926L28.9017 8.17773C28.8633 7.44744 28.26 6.875 27.5287 6.875H24.6016C23.8422 6.875 23.2266 6.25939 23.2266 5.5C23.2266 4.74061 23.8422 4.125 24.6016 4.125H27.5287C29.7226 4.125 31.5326 5.84231 31.6479 8.0332L31.8119 11.1481ZM13.6016 6.875C13.6016 7.63439 12.986 8.25 12.2266 8.25C11.4672 8.25 10.8516 7.63439 10.8516 6.875V4.125C10.8516 1.84683 12.6984 0 14.9766 0H17.7266C20.0047 0 21.8516 1.84683 21.8516 4.125V6.875C21.8516 7.63439 21.236 8.25 20.4766 8.25C19.7172 8.25 19.1016 7.63439 19.1016 6.875V4.125C19.1016 3.36561 18.486 2.75 17.7266 2.75H14.9766C14.2172 2.75 13.6016 3.36561 13.6016 4.125V6.875ZM19.1016 15.125H28.7266C31.0047 15.125 32.8516 16.9718 32.8516 19.25V28.875C32.8516 31.1532 31.0047 33 28.7266 33H19.1016C16.8234 33 14.9766 31.1532 14.9766 28.875V19.25C14.9766 16.9718 16.8234 15.125 19.1016 15.125ZM19.1016 17.875C18.3422 17.875 17.7266 18.4906 17.7266 19.25V28.875C17.7266 29.6344 18.3422 30.25 19.1016 30.25H28.7266C29.486 30.25 30.1016 29.6344 30.1016 28.875V19.25C30.1016 18.4906 29.486 17.875 28.7266 17.875H19.1016Z" fill="white"/>
</svg>
